# xmcd CD database file
# Copyright (C) 1996 Ti Kan
#
# Track frame offsets:
# 	150
# 	18240
# 	34827
# 	55637
# 	76440
# 	97185
# 	117587
# 	134195
# 	150210
# 	167375
# 	183750
# 	200797
# 	224620
# 	245385
#
# Disc length: 3809 seconds
#
# Revision: 1
# Processed by: cddbd v1.4b41PL1 Copyright (c) Steve Scherf et al.
# Submitted via: DiscPlay 3.4
#
DISCID=bf0edf0e
DTITLE=Bad Company - Stories Told and Untold
DYEAR=1900
DGENRE=
TTITLE0=One On One
TTITLE1=Oh Atlanta
TTITLE2=You're Never Alone
TTITLE3=I Still Believe In You
TTITLE4=Ready For Love
TTITLE5=Waiting On Love
TTITLE6=Can't Get Enough
TTITLE7=Is That All There Is To Love
TTITLE8=Love So Strong
TTITLE9=Silver Blue And Gold
TTITLE10=Downpour In Cairo
TTITLE11=Shooting Star
TTITLE12=Simple Man
TTITLE13=Weep No More
EXTD=
EXTT0=
EXTT1=
EXTT2=
EXTT3=
EXTT4=
EXTT5=
EXTT6=
EXTT7=
EXTT8=
EXTT9=
EXTT10=
EXTT11=
EXTT12=
EXTT13=
PLAYORDER=
